<?xml version="1.0" standalone="no"?>
<!DOCTYPE svg PUBLIC "-//W3C//DTD SVG 20010904//EN"
 "http://www.w3.org/TR/2001/REC-SVG-20010904/DTD/svg10.dtd">
<svg version="1.0" xmlns="http://www.w3.org/2000/svg"
 width="16.000000pt" height="16.000000pt" viewBox="0 0 16.000000 16.000000"
 preserveAspectRatio="xMidYMid meet">
<metadata>
Created by potrace 1.11, written by Peter Selinger 2001-2013
</metadata>
<g transform="translate(0.000000,16.000000) scale(0.002329,-0.002329)"
fill="#000000" stroke="none">
<path d="M5480 6731 c-8 -5 -39 -11 -68 -15 -54 -7 -166 -59 -292 -136 -109
-66 -141 -93 -172 -142 -16 -26 -38 -50 -49 -53 -10 -4 -37 -33 -59 -65 -22
-32 -49 -61 -60 -65 -21 -7 -52 -59 -64 -107 -3 -14 -16 -39 -29 -55 -35 -41
-107 -177 -107 -200 0 -11 -11 -35 -25 -54 -13 -19 -42 -68 -63 -109 -21 -41
-64 -120 -95 -176 -32 -55 -57 -108 -57 -117 0 -8 -29 -80 -64 -159 -63 -141
-73 -169 -96 -258 -7 -25 -25 -76 -42 -115 -17 -38 -33 -80 -35 -93 -6 -25
-83 -87 -149 -120 -23 -12 -44 -28 -47 -36 -3 -8 -21 -17 -39 -21 -18 -4 -57
-18 -87 -31 -30 -14 -79 -30 -110 -38 -31 -7 -73 -21 -93 -30 -21 -9 -38 -13
-38 -9 1 5 7 37 16 73 8 36 19 142 25 235 25 399 33 477 58 555 7 22 11 113
10 245 -2 208 -2 210 -30 266 -23 47 -36 60 -87 87 -82 44 -158 45 -240 3 -69
-35 -75 -42 -141 -157 -28 -51 -58 -97 -66 -104 -8 -7 -25 -30 -36 -50 -12
-21 -30 -42 -39 -47 -18 -8 -126 -148 -150 -194 -7 -13 -19 -27 -26 -32 -7 -4
-23 -25 -35 -46 -11 -21 -40 -50 -64 -65 -23 -15 -64 -56 -91 -92 -27 -35 -52
-64 -55 -64 -4 0 -18 -17 -30 -37 -13 -21 -27 -41 -33 -45 -19 -13 -239 -224
-449 -432 -134 -131 -229 -217 -258 -231 -29 -15 -50 -34 -58 -53 -7 -16 -33
-46 -59 -68 -51 -43 -58 -48 -158 -115 -38 -26 -89 -71 -114 -102 -50 -61
-106 -102 -162 -119 -22 -6 -63 -36 -99 -70 -34 -32 -81 -70 -105 -84 -24 -14
-46 -34 -49 -44 -9 -28 -132 -126 -225 -179 -19 -11 -57 -40 -83 -65 -27 -25
-57 -48 -66 -51 -10 -3 -63 -35 -117 -71 -107 -71 -196 -124 -275 -164 -27
-14 -53 -30 -57 -35 -4 -6 -40 -32 -80 -59 -101 -67 -116 -98 -110 -225 6
-127 28 -172 101 -207 38 -17 69 -24 118 -24 59 0 77 5 170 50 199 97 310 159
356 199 25 23 50 41 55 41 5 0 34 24 64 52 31 29 70 62 88 73 94 58 153 100
170 122 10 13 37 33 60 45 53 27 203 125 211 138 4 6 41 28 83 50 52 27 88 54
112 84 19 24 49 52 65 61 17 10 39 29 50 42 15 18 35 26 75 32 31 4 62 11 69
15 15 9 108 19 351 36 85 6 168 15 184 20 16 6 68 10 115 11 85 0 160 9 193
24 13 5 18 0 23 -22 3 -15 20 -58 38 -95 31 -61 33 -71 26 -125 -5 -32 -16
-130 -25 -218 -9 -88 -20 -191 -25 -230 -4 -38 -8 -114 -8 -168 -1 -90 1 -102
30 -159 65 -128 105 -158 214 -158 55 0 77 6 135 35 55 28 74 44 95 79 39 67
47 100 52 236 3 69 7 153 8 187 2 35 8 84 14 110 6 27 15 75 20 108 5 33 15
78 21 100 7 22 18 92 26 155 8 63 19 129 25 146 5 17 9 46 9 65 0 19 12 59 26
87 22 45 35 57 85 82 32 17 64 30 71 30 7 0 42 14 78 32 36 17 85 37 110 44
25 6 61 19 82 27 l36 16 -18 -47 c-51 -137 -62 -162 -71 -162 -15 0 -66 -119
-85 -196 -9 -38 -26 -96 -39 -129 -28 -74 -43 -136 -51 -212 -3 -32 -15 -82
-25 -111 -11 -31 -19 -79 -19 -118 0 -55 6 -76 39 -143 37 -72 44 -80 90 -99
58 -26 119 -28 180 -6 131 45 168 95 203 272 15 75 34 133 64 195 49 100 75
135 130 170 21 13 55 38 75 53 20 16 65 42 100 57 35 16 93 43 129 61 36 19
101 41 145 50 44 10 100 24 125 31 25 8 79 17 120 21 41 3 84 11 95 17 11 6
45 15 75 19 30 4 87 13 125 19 173 30 570 -13 653 -70 15 -10 66 -39 113 -65
141 -75 233 -188 256 -314 24 -129 25 -165 9 -228 -20 -76 -106 -278 -140
-329 -14 -21 -31 -55 -36 -76 -6 -21 -18 -42 -26 -47 -9 -5 -46 -67 -83 -138
l-67 -129 -35 3 c-18 2 -56 9 -84 16 -84 23 -174 35 -310 41 -71 3 -143 10
-160 15 -70 21 -234 29 -420 20 -320 -16 -506 -30 -595 -47 -47 -8 -119 -19
-160 -24 -160 -18 -321 -48 -355 -66 -11 -6 -67 -14 -125 -18 -82 -5 -120 -13
-175 -36 -47 -19 -87 -29 -122 -29 -29 0 -72 -6 -95 -14 -24 -7 -63 -19 -88
-25 -25 -7 -58 -16 -75 -21 -16 -5 -64 -12 -107 -16 -53 -5 -88 -14 -115 -30
-66 -40 -144 -74 -172 -74 -14 0 -66 -19 -116 -41 -49 -22 -122 -51 -161 -64
-83 -27 -145 -57 -163 -79 -8 -9 -23 -16 -35 -16 -27 0 -287 -116 -301 -135
-6 -7 -58 -37 -115 -66 -58 -29 -116 -63 -130 -77 -14 -14 -56 -45 -95 -70
-67 -44 -109 -78 -144 -114 -9 -10 -38 -39 -65 -65 -27 -26 -56 -55 -64 -65
-7 -9 -35 -38 -60 -65 -51 -52 -84 -105 -162 -259 -60 -118 -73 -178 -74 -329
0 -102 2 -114 30 -175 53 -113 89 -144 279 -246 85 -46 123 -60 170 -65 33 -4
80 -14 105 -24 73 -28 158 -46 262 -55 130 -11 789 -11 913 0 166 15 277 29
330 41 28 6 91 17 140 24 231 35 247 39 385 95 30 13 80 26 110 30 30 4 82 17
115 29 74 27 148 49 197 60 20 4 56 20 81 34 25 15 55 27 67 27 11 0 43 11 70
25 27 14 57 25 66 25 9 0 37 10 63 23 25 13 107 52 181 88 214 104 241 118
310 159 36 21 86 50 112 64 25 14 56 38 67 52 12 15 41 36 64 46 23 11 51 28
62 38 25 25 94 75 160 117 28 18 72 55 100 83 27 29 61 58 76 66 15 7 30 22
33 32 3 9 21 26 41 36 19 10 73 57 121 103 48 46 100 91 115 99 16 8 29 19 29
26 0 6 26 35 58 64 31 30 64 61 73 70 10 9 22 21 29 28 60 56 84 84 101 118
11 22 57 77 102 122 57 57 89 98 106 136 13 30 27 62 32 70 5 8 23 44 40 79
31 65 68 123 82 129 4 2 18 25 32 51 13 26 31 54 41 62 9 8 33 48 51 89 19 41
52 110 74 153 65 130 94 236 104 387 4 52 14 122 23 155 19 71 20 173 3 235
-41 149 -65 209 -139 346 -30 56 -187 215 -230 233 -16 7 -36 25 -45 40 -10
17 -40 40 -74 56 -32 15 -69 34 -83 41 -14 8 -54 28 -90 44 -36 17 -85 42
-110 55 -25 13 -81 29 -125 36 -44 6 -129 21 -190 32 -110 19 -332 39 -455 39
-36 1 -96 -7 -135 -16 -38 -10 -92 -21 -120 -26 -27 -5 -86 -18 -129 -29 -44
-12 -87 -21 -97 -21 -9 0 -53 -15 -96 -34 -134 -58 -207 -86 -224 -86 -9 0
-33 -7 -54 -16 -20 -8 -40 -12 -43 -9 -4 4 9 36 28 72 41 78 122 154 183 173
61 19 97 38 142 75 39 31 93 61 188 103 28 13 52 32 59 47 10 23 68 70 167
137 42 29 64 50 171 166 46 51 92 95 102 98 10 3 29 27 43 54 14 27 34 51 45
55 11 3 28 19 39 34 11 16 34 43 51 61 18 19 41 52 52 74 12 23 45 76 74 118
30 42 71 112 92 155 20 43 58 116 84 163 33 62 47 101 52 143 3 32 16 77 27
99 19 37 20 55 17 202 -3 158 -4 162 -36 231 -18 39 -51 88 -72 109 -22 22
-40 43 -40 48 0 13 -121 63 -247 102 -56 17 -129 21 -153 7z m-17 -643 c-10
-55 -145 -310 -184 -348 -20 -20 -43 -49 -52 -65 -8 -17 -32 -46 -53 -66 -22
-20 -55 -57 -74 -83 -19 -25 -39 -46 -43 -46 -5 0 -38 -30 -74 -66 -36 -36
-67 -64 -69 -61 -2 2 7 26 20 53 14 27 32 68 42 91 9 24 25 45 36 49 10 3 27
23 39 45 11 22 27 43 35 46 8 3 30 35 49 72 63 124 124 223 162 265 21 22 43
49 48 59 9 13 111 87 122 87 1 0 0 -15 -4 -32z m-2360 -1272 c-9 -16 -19 -52
-24 -80 -10 -62 -24 -127 -38 -181 -6 -22 -11 -64 -11 -93 0 -60 -22 -117 -48
-125 -9 -3 -55 -19 -103 -35 -47 -16 -134 -37 -195 -47 -60 -9 -131 -23 -159
-31 -27 -7 -77 -16 -110 -19 -33 -4 -69 -9 -80 -12 -13 -4 -7 6 18 28 22 19
55 49 74 67 20 18 47 42 62 53 42 33 133 123 176 175 22 26 87 96 145 155 58
59 123 129 144 157 21 27 58 62 81 77 23 14 48 38 56 53 12 26 13 24 20 -43 5
-53 3 -77 -8 -99z m1709 -2776 c128 1 163 -2 189 -15 23 -12 47 -15 88 -11
102 9 215 6 306 -10 49 -9 91 -17 94 -19 5 -6 -39 -59 -59 -70 -10 -5 -32 -28
-50 -50 -17 -22 -55 -54 -85 -71 -30 -17 -65 -46 -77 -64 -13 -19 -46 -47 -75
-64 -29 -17 -64 -46 -77 -65 -14 -19 -51 -52 -83 -73 -32 -22 -88 -66 -125
-98 -43 -39 -105 -79 -177 -115 -67 -34 -112 -63 -116 -75 -11 -34 -75 -80
-183 -132 -154 -73 -187 -89 -289 -146 -50 -29 -99 -52 -108 -52 -9 0 -51 -16
-93 -36 -42 -19 -93 -39 -112 -44 -19 -5 -51 -14 -70 -19 -19 -6 -85 -24 -147
-40 -61 -16 -117 -32 -124 -36 -6 -5 -52 -12 -100 -16 -51 -5 -104 -16 -126
-27 -25 -13 -82 -23 -168 -31 -71 -7 -168 -21 -214 -32 -76 -18 -122 -19 -475
-19 -215 0 -411 5 -436 10 -25 5 -62 9 -83 10 -21 0 -52 7 -70 17 -18 9 -63
22 -102 29 -85 16 -112 30 -130 65 -13 24 -11 35 13 105 24 70 35 88 104 159
42 44 81 83 85 87 4 5 49 48 98 96 59 58 101 91 120 95 17 3 46 17 65 31 19
14 62 38 96 54 33 16 64 37 67 46 7 16 76 52 161 82 27 9 56 24 65 33 9 9 37
22 61 28 66 16 210 79 235 103 23 22 101 47 180 59 28 4 61 13 75 21 14 7 41
17 60 21 89 19 202 59 253 88 46 26 75 34 145 42 112 11 159 22 199 42 18 9
44 17 59 17 16 0 69 7 118 15 50 8 134 22 186 31 52 8 183 20 290 25 107 6
209 14 225 19 17 5 59 6 95 3 36 -3 136 -4 222 -3z"/>
</g>
</svg>
